[img]http://imgboot.com/images/fasamoo/gogo.gif[/img]


[img]http://imgboot.com/images/fasamoo/plot.gif[/img]

A Sex Comedy With A Twist!
A male-centric take on contemporary relationships, where three guy friends look for love and 

commitment. 


[img]http://imgboot.com/images/fasamoo/screenshots.gif[/img]


[url=http://www.imgboot.com/image.php?u=fasamoo&i=knots2004dvdripgogo2010060213435588.jpg][img]http://imgboot.com/images/fasamoo/knots2004dvdripgogo2010060213435588.jpg[/img][/url]
[url=http://www.imgboot.com/image.php?u=fasamoo&i=knots2004dvdripgogo2010060213430131.jpg][img]http://imgboot.com/images/fasamoo/knots2004dvdripgogo2010060213430131.jpg[/img][/url]
[url=http://www.imgboot.com/image.php?u=fasamoo&i=knots2004dvdripgogo2010060213395361.jpg][img]http://imgboot.com/images/fasamoo/knots2004dvdripgogo2010060213395361.jpg[/img][/url]
[url=http://www.imgboot.com/image.php?u=fasamoo&i=knots2004dvdripgogo2010060213381324.jpg][img]http://imgboot.com/images/fasamoo/knots2004dvdripgogo2010060213381324.jpg[/img][/url]
[url=http://www.imgboot.com/image.php?u=fasamoo&i=knots2004dvdripgogo2010060213440765.jpg][img]http://imgboot.com/images/fasamoo/knots2004dvdripgogo2010060213440765.jpg[/img][/url]

[img]http://imgboot.com/images/fasamoo/info.gif[/img]

General
Complete name                    : Knots 2004 DVDRip(Multisub) GoGoKnots 2004 DVDRip(Multisub) 

GoGo.avi
IMDB Link                        : http://www.imdb.com/title/tt0361805/
Format                           : AVI
Format/Info                      : Audio Video Interleave
File size                        : 700 MiB
Duration                         : 1h 32mn
Overall bit rate                 : 1 061 Kbps
Writing application              : VirtualDubMod 1.5.4.1 (build 2178/release)
Writing library                  : VirtualDubMod build 2178/release

Video
ID                               : 0
Format                           : MPEG-4 Visual
Format profile                   : Advanced Simple@L5
Format settings, BVOP            : Yes
Format settings, QPel            : No
Format settings, GMC             : No warppoints
Format settings, Matrix          : Custom
Codec ID                         : XVID
Codec ID/Hint                    : XviD
Duration                         : 1h 32mn
Bit rate                         : 938 Kbps
Width                            : 672 pixels
Height                           : 352 pixels
Display aspect ratio             : 1.909
Frame rate                       : 23.976 fps
Resolution                       : 8 bits
Colorimetry                      : 4:2:0
Scan type                        : Progressive
Bits/(Pixel*Frame)               : 0.165
Stream size                      : 619 MiB (88%)
Writing library                  : XviD 1.2.1 (UTC 2008-12-04)

Audio
ID                               : 1
Format                           : MPEG Audio
Format version                   : Version 1
Format profile                   : Layer 3
Mode                             : Joint stereo
Format_Settings_ModeExtension    : MS Stereo
Codec ID                         : 55
Codec ID/Hint                    : MP3
Duration                         : 1h 32mn
Bit rate mode                    : Variable
Bit rate                         : 110 Kbps
Nominal bit rate                 : 128 Kbps
Channel(s)                       : 2 channels
Sampling rate                    : 48.0 KHz
Stream size                      : 72.7 MiB (10%)
Alignment                        : Aligned on interleaves
Interleave, duration             : 24 ms (0.58 video frame)
Interleave, preload duration     : 460 ms
Writing library                  : LAME3.98r
Encoding settings                : -m j -V 4 -q 2 -lowpass 17 --abr 128
Language                         : English
Subtitles                        : English,Espanol,Chinese,Thai,Malay,Indonesian.(.IDX+*.SUB)
                                 : English.(.srt)
Genre                            : Comedy

[img]http://imgboot.com/images/fasamoo/pleaseseed.gif[/img] 
